<svg id="svg" version="1.1" viewBox="0 0 300 236.33333333333337" width="300" height="236.33333333333337" xmlns="http://www.w3.org/2000/svg"><svg xmlns="http://www.w3.org/2000/svg"><defs><clipPath id="clip-1"><rect x="0" y="0" transform="scale(0.14648,0.14652)" width="2048" height="1613" fill="none"/></clipPath></defs><g clip-path="url(#clip-1)" fill="none" fill-rule="nonzero" stroke="none" stroke-width="1" stroke-linecap="butt" stroke-linejoin="miter" stroke-miterlimit="10" stroke-dasharray="" stroke-dashoffset="0" font-family="none" font-weight="none" font-size="none" text-anchor="none" style="mix-blend-mode: normal"><path d="M131.51733,182.13051l6.40547,-0.00586c-0.12993,8.10244 -0.01743,16.49938 -0.01831,24.62379l-0.08262,0.15384c-0.5707,0.10696 -3.02534,0.05714 -3.71455,0.05568l-8.14775,-0.01465c-6.95581,-6.97132 -13.92173,-14.56681 -20.78145,-21.69783l0.00073,21.72128c-2.15405,-0.03663 -4.30854,-0.0337 -6.4626,0.00586l-0.00469,-24.84357l11.55088,0.0044c7.03989,7.03579 14.33115,14.93017 21.25854,22.16962z" fill="#1d256c"/><path d="M63.36914,182.18326c0.00981,-0.00147 0.01963,-0.00293 0.0293,-0.0044c7.12954,-0.13626 14.27622,-0.0044 21.40664,-0.04542c4.3541,-0.02491 7.98911,1.49155 8.34258,6.3032l-6.98789,0.01758l-0.09551,-0.10696c-1.40889,-1.55749 -2.62705,-2.22414 -4.7562,-2.25491c-3.53672,-0.04982 -7.09687,-0.01612 -10.62905,-0.02784c-2.38711,-0.00733 -4.40464,-0.18022 -6.28081,1.56481c-2.11846,1.97067 -1.46323,4.58894 -1.58027,7.15886c-0.96826,9.56908 5.52378,8.38522 12.45322,8.33394c3.15776,-0.02344 7.67476,0.71061 10.20176,-1.67177c1.43994,-1.35822 1.43174,-2.97724 1.41138,-4.81604h-12.86968l-0.0041,-3.22632l19.10874,-0.00293c-0.02314,7.9061 1.32393,13.95876 -9.22339,13.58514c-0.57773,-0.02051 -1.27617,0.00147 -1.86563,0.00147l-8.97612,0.0044c-3.45645,-0.00147 -7.38472,0.08352 -10.84146,-0.1304c-1.24014,-0.18461 -2.2853,-0.74431 -3.25137,-1.46811c-3.4125,-2.55381 -2.07393,-7.50904 -2.30859,-11.25843c-0.0832,-1.32745 -0.11045,-5.68489 0.13696,-6.8922c0.19907,-0.98313 0.64351,-1.89887 1.29185,-2.66369c1.41123,-1.66737 3.1875,-2.24319 5.28765,-2.39996z" fill="#1d256c"/><path d="M217.18359,182.10414c1.88232,0.04835 3.88623,0.01026 5.77734,0.00733l0.00146,24.85529c-3.57861,-0.07765 -7.35059,-0.01465 -10.94385,-0.01026c-2.26172,-2.4659 -4.62158,-5.30541 -6.82471,-7.84896l-11.93555,-13.81957l0.02637,21.68172c-1.93506,-0.04982 -3.94482,-0.01612 -5.88574,-0.01026c0.12891,-8.142 0.03076,-16.69864 0,-24.85676c3.33252,0.09084 7.49854,-0.15238 10.73584,0.15384c1.89404,2.47615 5.38184,6.28269 7.49121,8.70463c3.8042,4.36623 7.68311,9.05774 11.54883,13.32727c0.09521,-7.32296 0.00732,-14.84812 0.00879,-22.18427z" fill="#29abe2"/><path d="M5.69338,182.16567c1.08756,-0.09377 3.12844,-0.03809 4.28758,-0.03956l7.84458,-0.00293l7.62803,-0.00147c4.73306,0.00147 9.04541,-0.54212 9.83438,5.39332l-7.01514,0.01172c-0.00615,-0.0337 -0.0123,-0.06886 -0.01846,-0.10403l-0.03457,-0.17289c-0.25913,-1.37287 -0.9479,-2.5245 -2.43809,-2.62267c-4.87104,-0.32087 -9.91714,-0.14505 -14.79943,-0.12747c-4.09904,0.01465 -3.60346,2.84391 -3.24873,5.94423c1.71023,2.36773 4.82638,1.9355 7.50847,1.9355l10.01631,-0.03663c2.06235,-0.00879 5.71978,-0.25787 7.49897,0.58021c1.26343,0.59926 2.23184,1.68203 2.68579,3.00362c0.56836,1.65565 0.47329,6.18598 -0.4103,7.80794c-1.00576,1.84466 -2.14922,2.47322 -4.02744,3.07688c-1.7042,0.25494 -7.63857,0.14212 -9.64146,0.14359l-8.91891,0.00293c-5.72969,-0.00147 -11.16795,1.01244 -11.12948,-6.59477l6.84206,-0.01172c0.10696,2.81607 1.26552,3.15306 3.85315,3.16625c3.92842,0.0044 7.8687,0.01905 11.79609,0.00293c1.48389,-0.00586 3.20654,0.24029 4.29624,-0.94944c1.06201,-1.16042 0.77813,-3.27028 0.74312,-4.74718c-1.48169,-2.40436 -3.87056,-1.80803 -6.3873,-1.8007l-10.45365,0.03077c-4.2007,0.01612 -9.92338,0.87764 -10.85582,-4.82776c-0.66371,-4.06148 -0.40619,-8.35445 4.54402,-9.06067z" fill="#1d256c"/><path d="M207.85986,39.14943c6.36328,-0.56395 12.82031,2.32876 14.23535,9.04689c0.56104,2.71175 0.01025,5.53559 -1.53076,7.83651c-2.02588,3.07072 -4.95996,4.58718 -8.46826,5.32212c-6.45117,0.80966 -13.24951,-2.30106 -14.54736,-9.14491c-0.52002,-2.7623 0.08936,-5.6175 1.69043,-7.9275c2.08447,-3.03307 5.10205,-4.47685 8.62061,-5.13311z" fill="#00378c"/><path d="M228.82617,182.13784c2.37744,0.1011 5.02295,0.04835 7.41797,0.02344v10.22695l4.25391,0.0044c1.22461,-1.115 3.17578,-2.56406 4.50732,-3.6146l8.34814,-6.59037c3.07471,-0.07619 6.32959,0.01465 9.44531,-0.02637c-0.70898,0.61391 -1.54541,1.26884 -2.30566,1.82122c-4.65088,3.38749 -9.18457,7.27754 -13.90723,10.54196c2.08154,1.66884 4.35059,3.30251 6.47461,4.96842c3.25635,2.33989 6.59619,5.04168 9.84521,7.46216c-3.02051,-0.08938 -6.45996,-0.00586 -9.51416,-0.0044c-3.78809,-2.70179 -8.02148,-6.1684 -11.81836,-9.03869l-5.33936,0.01612l0.02344,9.03869c-2.47559,-0.03809 -4.95264,-0.03663 -7.42822,0.00879c-0.10254,-8.20207 -0.00293,-16.61806 -0.00293,-24.83771z" fill="#29abe2"/><path d="M270.18604,182.15835c1.68018,-0.11721 3.60059,-0.0293 5.30859,-0.03809c5.69531,-0.03077 11.39941,-0.01465 17.0918,0.05275c2.4624,0.0293 5.65869,3.32889 4.68457,5.26292c-0.50391,0.13187 -5.85645,0.22271 -6.13916,-0.03956c-0.75439,-0.70036 -0.45703,-1.95308 -1.98047,-2.693c-1.03857,-0.50549 -14.71289,-0.30622 -15.74854,0.13333c-0.5127,0.21685 -0.95947,0.84248 -1.1499,1.34796c-0.38818,1.02709 -0.37939,3.36405 0.07764,4.37649c0.3252,0.72233 0.89795,1.3128 1.65674,1.57067c1.39453,0.47325 3.16406,0.26666 4.62891,0.25494c3.104,-0.02198 14.04346,-0.49523 16.28467,0.45128c1.16455,0.4923 2.00977,1.4432 2.4917,2.5963c0.87012,2.08348 0.70605,6.24899 -0.1875,8.29731c-0.71631,1.641 -1.89844,2.46883 -3.51855,3.10911c-0.63281,0.08352 -1.28027,0.0967 -1.91748,0.10403l-13.75488,0.01319c-6.03516,-0.00147 -11.6792,1.41829 -11.71729,-6.5303c2.06836,0.03516 4.20703,0.00293 6.28271,0c0.00879,0.31355 0.02197,0.75457 0.06738,1.05932c0.10547,0.6608 0.47607,1.25126 1.02539,1.63367c1.3667,0.93918 13.43994,0.41465 15.82471,0.33113c0.80713,-0.0293 1.58789,-1.23222 1.98633,-1.88422c0.12012,-2.49227 0.6709,-4.11715 -1.80176,-5.51786l-12.2915,0.01905c-7.69482,0.02491 -11.96924,0.86446 -11.30713,-8.98008c0.19189,-2.84684 1.33301,-4.32667 4.10303,-4.93033z" fill="#29abe2"/><path d="M201.64453,71.25868c5.74072,-0.88292 12.12012,3.17724 13.08398,9.08806c0.42627,2.66838 -0.24756,5.39552 -1.86914,7.55725c-2.13281,2.8864 -4.97314,4.13166 -8.41699,4.65414c-5.88721,0.76277 -12.25488,-2.93109 -13.19678,-9.06447c-0.43066,-2.70252 0.26074,-5.4638 1.91455,-7.64398c2.10938,-2.79058 5.0918,-4.13254 8.48438,-4.59099z" fill="#00378c"/><path d="M197.41699,99.39465c2.15039,-0.53845 5.89893,0.59735 7.68311,1.85096c2.18408,1.53448 3.76465,3.68199 4.24658,6.33162c0.43359,2.44656 -0.13916,4.96461 -1.58936,6.9826c-1.91162,2.68728 -4.62451,3.8688 -7.76953,4.40638c-5.73486,0.30139 -11.50049,-2.46824 -12.2915,-8.66785c-0.29883,-2.4637 0.41162,-4.94337 1.97021,-6.87447c1.97607,-2.4804 4.65967,-3.67335 7.75049,-4.02924z" fill="#0251a8"/><path d="M170.1123,35.67359c5.51953,-0.59135 11.21338,2.20085 12.42041,7.9609c0.49072,2.40714 -0.01758,4.90996 -1.40771,6.93513c-1.86182,2.76699 -4.51172,3.98499 -7.67285,4.62806c-5.43018,0.52307 -11.08154,-2.09433 -12.35156,-7.77028c-0.54199,-2.41198 -0.08789,-4.94088 1.25977,-7.01279c1.87646,-2.90237 4.51611,-4.06983 7.75195,-4.74103z" fill="#1d256c"/><path d="M137.77017,58.50122c5.16475,-0.44893 10.45151,2.21052 11.58823,7.58054c0.479,2.31191 -0.00293,4.71949 -1.33447,6.6692c-1.77568,2.65534 -4.24878,3.82075 -7.27778,4.41326c-5.3313,0.73215 -11.00991,-2.26605 -11.95356,-7.85658c-0.40078,-2.32363 0.15381,-4.7107 1.53779,-6.61953c1.8791,-2.6149 4.38325,-3.66075 7.43979,-4.18689z" fill="#1d256c"/><path d="M145.02671,182.14663c2.26626,0.08058 5.20913,0.07619 7.4562,-0.00879l-0.00293,18.10814c6.01758,0.00586 12.3501,0.10549 18.34277,-0.0293l-0.00146,6.74715c-3.75146,-0.08645 -7.76074,-0.01905 -11.52686,-0.02051c-4.75342,-0.02491 -9.50684,-0.01319 -14.25981,0.03223z" fill="#29abe2"/><path d="M166.07666,92.65278c2.28955,-0.15648 4.43848,0.31399 6.30176,1.70254c1.65381,1.21302 2.75098,3.04054 3.04395,5.07098c0.25928,1.96363 -0.29443,3.94822 -1.53223,5.49427c-1.57764,1.99909 -3.63867,2.85475 -6.09521,3.162c-1.88818,0.4101 -4.86035,-0.52776 -6.35596,-1.71558c-1.6377,-1.29976 -2.73779,-3.00567 -3.00439,-5.09399c-0.2417,-1.97198 0.32227,-3.95789 1.56445,-5.5079c1.53223,-1.91924 3.68848,-2.8379 6.07764,-3.11233z" fill="#00378c"/><path d="M111.41514,55.28075c10.84688,-1.0728 13.34077,13.94836 1.85259,15.43932c-2.32383,0.1537 -4.41387,-0.23545 -6.33267,-1.63573c-1.6752,-1.2057 -2.79976,-3.03058 -3.12393,-5.06937c-0.27188,-1.90576 0.2269,-3.84141 1.38574,-5.37838c1.54863,-2.09271 3.71587,-3.00215 6.21826,-3.35585z" fill="#1d256c"/><path d="M110.92734,27.60294c1.5917,-0.30095 4.49473,0.68819 5.78906,1.67997c1.65425,1.26738 2.78306,2.93812 3.08848,5.01501c0.28652,1.92114 -0.22441,3.87584 -1.41431,5.41061c-1.69263,2.22575 -3.90601,3.0171 -6.56836,3.35555c-2.22539,0.07341 -4.53384,-0.58226 -6.2833,-1.98561c-1.56606,-1.23998 -2.57124,-3.05504 -2.79155,-5.04065c-0.18984,-1.90708 0.39082,-3.81093 1.6125,-5.28754c1.72632,-2.12319 3.94028,-2.89007 6.56748,-3.14735z" fill="#050d41"/><path d="M85.19956,24.21384c4.09336,-0.66387 8.56128,2.04378 9.45469,6.19243c0.40708,1.91704 0.0208,3.91745 -1.07065,5.54512c-1.52798,2.29242 -3.62637,3.16962 -6.21152,3.67188c-4.41724,0.37465 -8.91196,-2.06913 -9.59224,-6.72136c-0.26455,-1.93682 0.25986,-3.89869 1.45532,-5.44519c1.49209,-1.95206 3.57451,-2.92347 5.9644,-3.24288z" fill="#050d41"/><path d="M89.82891,49.15777c1.96128,0.04015 3.68174,0.4816 5.26582,1.68862c1.5249,1.14401 2.52759,2.85182 2.78364,4.74117c0.61538,4.77897 -3.27539,7.58245 -7.58203,8.14742c-2.31548,-0.01143 -4.40039,-0.54329 -6.16084,-2.12978c-1.4187,-1.25874 -2.26758,-3.03819 -2.35342,-4.93296c-0.06577,-1.83807 0.61055,-3.62515 1.8769,-4.95875c1.69351,-1.81726 3.76113,-2.4596 6.16992,-2.55571z" fill="#050d41"/><path d="M174.58154,182.1056c2.48145,0.05128 5.05518,0.01026 7.54395,0.0044l0.00586,24.85676c-2.51514,-0.03223 -5.03027,-0.03223 -7.54541,-0.00147c0.08203,-8.22551 0.02197,-16.62831 -0.00439,-24.85969z" fill="#29abe2"/><path d="M188.62939,145.11057c3.89502,-0.43926 7.93799,2.05491 8.59424,6.06218c0.2915,1.81096 -0.1582,3.66441 -1.24658,5.14131c-1.46191,2.01316 -3.40283,2.79849 -5.77148,3.18676c-4.23633,0.10403 -8.45947,-2.00436 -8.87695,-6.62993c-0.16846,-1.8095 0.40137,-3.60874 1.58057,-4.99186c1.4751,-1.74767 3.4834,-2.57271 5.72021,-2.76846z" fill="#0251a8"/><path d="M136.51934,109.48299c3.87979,-0.509 8.00317,1.72349 8.93291,5.67727c0.39756,1.76232 0.0709,3.61035 -0.90645,5.12944c-1.30151,2.04876 -3.21284,2.98882 -5.50737,3.50397c-4.18286,0.42915 -8.45142,-1.51998 -9.30952,-5.95419c-0.33135,-1.75206 0.06196,-3.56346 1.08999,-5.02014c1.36904,-1.96217 3.39683,-2.94003 5.70044,-3.33636z" fill="#00378c"/><path d="M112.46821,78.71761c4.02158,-0.33084 8.16372,1.49199 9.10825,5.72973c0.3895,1.76437 0.04556,3.61152 -0.95303,5.11728c-1.33403,2.02253 -3.28198,2.99146 -5.59482,3.4502c-4.08882,0.23736 -8.08345,-1.27881 -9.11396,-5.64841c-0.41924,-1.77125 -0.0936,-3.63687 0.90073,-5.16109c1.33081,-2.06766 3.33574,-2.99146 5.65283,-3.48771z" fill="#1d256c"/><path d="M192.35742,124.88099c3.95654,-0.06667 7.72705,1.49844 8.70264,5.70643c0.39404,1.73843 0.07178,3.562 -0.89209,5.06117c-1.31982,2.08964 -3.27979,3.01402 -5.60596,3.53299c-4.25977,0.24805 -8.57227,-1.5106 -9.2959,-6.1769c-0.26221,-1.74312 0.18164,-3.51921 1.2334,-4.93355c1.43701,-1.96554 3.51563,-2.84494 5.85791,-3.19013z" fill="#0251a8"/><path d="M163.57031,115.63191c3.74414,-0.44776 7.8999,1.89433 8.73779,5.72973c0.38965,1.74869 0.05859,3.5809 -0.92139,5.08124c-1.35498,2.07777 -3.3457,2.9938 -5.68359,3.49973c-4.18359,0.2019 -8.44189,-1.498 -9.16846,-6.08826c-0.29004,-1.80657 0.17139,-3.65328 1.27734,-5.11054c1.43994,-1.90649 3.45996,-2.7686 5.7583,-3.11189z" fill="#00378c"/><path d="M42.27554,182.13198l6.55679,-0.00586l0.00542,24.7454l-6.56221,0.00293c0.11016,-8.14346 0.02358,-16.58729 0,-24.74247z" fill="#1d256c"/><path d="M91.88394,72.14643c3.64907,-0.13831 7.22051,2.05858 7.74639,5.8572c0.22837,1.69052 -0.2458,3.40068 -1.31191,4.73209c-1.46851,1.86722 -3.38452,2.54692 -5.65767,2.8064c-3.6249,0.04469 -7.21436,-2.04803 -7.73218,-5.86687c-0.22515,-1.6892 0.2439,-3.3976 1.29961,-4.73502c1.47979,-1.89448 3.37046,-2.52992 5.65576,-2.7938z" fill="#1d256c"/><path d="M161.78027,136.32844c3.62549,-0.11634 7.19385,1.62957 7.68311,5.55288c0.19336,1.58078 -0.25635,3.17299 -1.24805,4.41883c-1.38721,1.75616 -3.18311,2.39498 -5.32031,2.65578c-1.75195,0.04982 -3.46729,-0.37069 -4.88232,-1.43734c-1.35059,-1.00335 -2.24268,-2.50868 -2.47119,-4.17649c-0.19775,-1.57551 0.24023,-3.16479 1.21729,-4.4162c1.31689,-1.69902 2.97217,-2.31733 5.02148,-2.59747z" fill="#0251a8"/><path d="M115.40127,120.90596c3.3416,-0.5279 6.95449,1.15984 7.75708,4.63934c0.32549,1.45419 0.05259,2.97827 -0.75732,4.22924c-1.05527,1.6558 -2.59189,2.42765 -4.45327,2.83322c-3.36665,0.53113 -6.87993,-1.10094 -7.70815,-4.59612c-0.35156,-1.46239 -0.09521,-3.00479 0.71045,-4.27451c1.06128,-1.66972 2.59072,-2.41022 4.45122,-2.83116z" fill="#00378c"/><path d="M135.90293,127.94586c3.25752,-0.35824 6.54888,0.89171 7.57192,4.25605c0.43271,1.43324 0.26982,2.98047 -0.45205,4.29209c-1.01719,1.87206 -2.59146,2.63615 -4.53911,3.19438c-3.39419,0.49113 -7.00752,-1.15764 -7.76997,-4.72242c-0.31992,-1.47192 -0.03662,-3.0108 0.78618,-4.27231c1.0248,-1.5569 2.61753,-2.38326 4.40303,-2.7478z" fill="#00378c"/><path d="M92.70483,94.53831c3.01436,-0.34168 6.08276,1.03471 6.90425,4.13972c0.34014,1.31851 0.13784,2.71835 -0.56177,3.88639c-0.94746,1.60935 -2.42446,2.3267 -4.16221,2.7645c-3.15615,0.20395 -6.23657,-0.87735 -7.01924,-4.28799c-0.3104,-1.35954 -0.05259,-2.78677 0.71382,-3.95173c0.98379,-1.49551 2.43486,-2.18165 4.12515,-2.55088z" fill="#1d256c"/><path d="M93.75308,115.18591c2.83696,-0.07355 5.59175,0.80204 6.39126,3.85635c0.31128,1.19397 0.13198,2.46297 -0.49805,3.52375c-0.83921,1.42078 -2.18057,2.14854 -3.73345,2.5434c-2.78833,0.29816 -5.62676,-0.63047 -6.54214,-3.54515c-0.39404,-1.24189 -0.2521,-2.5919 0.39155,-3.72463c0.90029,-1.58107 2.33452,-2.20509 3.99082,-2.65373z" fill="#1d256c"/><path d="M264,221.51305c0.46143,-0.03516 0.52148,-0.05568 0.96094,0.05421c0.08496,0.09963 0.26807,0.33846 0.25635,0.46153c-0.14941,1.68203 0.32813,10.18446 -0.19336,10.95075c-0.51123,0.03663 -0.65918,0.14945 -0.97266,-0.08205c-0.00732,-0.36043 0.01172,-0.41904 -0.1084,-0.76629c-1.51465,1.38166 -2.08594,1.48716 -4.05469,0.76336c-0.26953,-0.22124 -0.51709,-0.46886 -0.73975,-0.73552c-2.74805,-3.345 1.68457,-8.94785 4.8501,-4.8219zM262.64355,232.09311c0.74707,-0.48351 1.36963,-1.10328 1.42529,-2.00583c0.15088,-2.49813 -1.32715,-3.02706 -3.25342,-2.81607c-2.2251,1.62049 -1.6084,5.1208 1.82813,4.8219z" fill="#222020"/><path d="M30.44971,221.50719c0.3791,-0.02637 0.67178,-0.1011 0.98408,0.08791c0.48442,0.98167 0.03691,9.20572 0.17168,10.87602c0.02622,0.32527 -0.18281,0.53186 -0.38701,0.75457l-0.2543,-0.01612c-0.26602,-0.19047 -0.49673,-0.76189 -0.65581,-1.0813c-1.65352,1.3084 -1.93975,1.56774 -4.05688,0.7531c-0.22866,-0.18608 -0.44326,-0.38974 -0.64204,-0.60805c-2.84517,-3.15893 1.32363,-9.2233 4.84175,-4.8556zM29.22407,232.00666c2.33379,-1.82854 1.44067,-5.2219 -2.02192,-4.73546c-2.2314,1.50034 -1.54468,5.51347 2.02192,4.73546z" fill="#222020"/><path d="M183.60645,225.97598c2.03174,-0.26373 3.89063,1.17947 4.13818,3.2146c0.24756,2.03513 -1.2085,3.88272 -3.24609,4.11569c-2.01416,0.22857 -3.83643,-1.20877 -4.08252,-3.22193c-0.24463,-2.01316 1.1792,-3.84756 3.19043,-4.10836zM184.63184,232.07845c1.35645,-0.30769 2.20166,-1.66298 1.88086,-3.0168c-0.3208,-1.35383 -1.68457,-2.18605 -3.03369,-1.85199c-1.33301,0.32967 -2.15039,1.6703 -1.83398,3.00508c0.31641,1.33624 1.64941,2.167 2.98682,1.86371z" fill="#222020"/><path d="M233.23535,225.97745c2.02734,-0.2652 3.8833,1.17068 4.13818,3.19849c0.25488,2.02927 -1.18652,3.87833 -3.2168,4.12448c-2.01709,0.24615 -3.85254,-1.18679 -4.10596,-3.20288c-0.25342,-2.01609 1.17041,-3.85782 3.18457,-4.12008zM234.28857,232.07113c1.34766,-0.31794 2.18115,-1.6703 1.85742,-3.0168c-0.32227,-1.3465 -1.67871,-2.17286 -3.02344,-1.84466c-1.3374,0.32673 -2.15771,1.67323 -1.83691,3.01094c0.3208,1.33917 1.66406,2.16553 3.00293,1.85052z" fill="#222020"/><path d="M140.11919,225.97452c2.03511,-0.26227 3.89341,1.18533 4.13628,3.22339c0.24272,2.03806 -1.22314,3.88272 -3.26294,4.1069c-2.01196,0.21978 -3.82588,-1.22196 -4.06538,-3.23218c-0.2395,-2.01169 1.18462,-3.83877 3.19204,-4.0981zM140.99399,232.10336c0.90278,-0.15238 1.65015,-0.78534 1.94795,-1.65126c0.29795,-0.86592 0.09873,-1.82561 -0.51929,-2.50106c-0.61787,-0.67545 -1.55566,-0.95969 -2.44438,-0.73992c-1.30444,0.32234 -2.12036,1.61902 -1.84717,2.93475c0.27334,1.3172 1.53779,2.18165 2.86289,1.95748z" fill="#222020"/><path d="M211.77832,222.16359c2.3584,-0.04689 6.08496,-0.5553 6.25928,2.84391c0.04102,0.77948 -0.23877,1.54137 -0.77637,2.10839c-1.13525,1.19119 -2.65576,1.03149 -4.14697,1.02856c0,0.83662 0.12158,4.28125 -0.16992,4.80139c-0.54492,0.21831 -0.31201,0.18315 -0.89062,0.09377c-0.49805,-0.53039 -0.27979,-9.39033 -0.27539,-10.87602zM213.11572,226.96645c0.94629,-0.04249 2.11963,-0.03516 2.97363,-0.4249c1.54102,-2.73988 -0.80273,-3.27467 -2.98096,-3.1853z" fill="#222020"/><path d="M16.21289,221.80023c0.38379,0.39267 4.47832,9.93538 4.88423,11.05038l-0.14897,0.18168c-0.24067,0.01612 -0.70225,0.05861 -0.89487,-0.05714c-0.70386,-0.42344 -1.33901,-2.44538 -1.66201,-3.27321l-1.76528,-0.00733h-2.47871c-0.35004,0.86739 -0.92761,2.44831 -1.4413,3.22779c-0.11262,0.16996 -0.7737,0.09377 -1.07811,0.09084l-0.16409,-0.18168c0.2677,-1.00365 1.19241,-2.94794 1.64208,-3.9721zM16.73584,228.57521c0.45908,-0.01026 0.78457,0.063 1.11768,-0.15677c-0.22441,-0.6564 -1.26724,-3.2864 -1.66465,-3.70397c-0.54141,1.27324 -1.08647,2.59776 -1.65133,3.85635z" fill="#222020"/><path d="M273.00293,225.95987c0.68262,0.00293 1.54834,0.04396 2.15625,0.42344c0.46289,0.20952 1.72412,1.87103 1.69922,2.36333c-0.11279,2.17286 -4.57031,0.13333 -5.53125,1.46957c0.4292,2.50546 2.62354,2.69153 4.25098,0.96702c0.06152,-0.17289 0.0542,-0.10989 0.25049,-0.25934c0.44531,0.19487 0.2666,0.05128 0.55518,0.44834c-0.05859,1.12672 -0.71924,1.48569 -1.7666,1.78166c-3.76611,1.06225 -5.76562,-2.95673 -3.88916,-5.86365c0.55078,-0.85273 1.29346,-1.13405 2.2749,-1.33038zM273.84082,228.83894c0.71045,0.00147 0.8877,0.11868 1.43262,-0.21392c0.32666,-1.28789 -1.46924,-1.66005 -2.44922,-1.62635c-0.4834,0.24468 -1.39746,0.77508 -1.5249,1.3421c0.55518,0.72966 1.6626,0.50988 2.5415,0.49816z" fill="#222020"/><path d="M49.16646,225.96719c2.01665,-0.08938 4.82563,1.68349 3.54126,3.80946l-5.25586,0.01026c0.6,2.60509 2.32148,3.50031 4.31748,1.45053c0.127,-0.21978 0.07412,-0.13919 0.30908,-0.29011c0.45278,0.14066 0.26426,0.01612 0.56997,0.40585c-0.01333,1.05932 -0.78955,1.5106 -1.69717,1.78312c-3.74722,1.12379 -5.87124,-2.81754 -4.00737,-5.80064c0.54229,-0.86739 1.28599,-1.16335 2.22261,-1.36848zM49.91455,228.83894c0.57246,0.02491 1.12588,0.13919 1.55874,-0.16996c0.51973,-1.23954 -1.37241,-1.70547 -2.32192,-1.67763c-0.55781,0.24468 -1.20703,0.61391 -1.56533,1.12233c0.10005,1.00658 1.54102,0.7531 2.32852,0.72526z" fill="#222020"/><path d="M128.74087,221.87641c1.08296,0 3.22075,0.22124 3.37954,1.62488c-0.32915,0.44395 -0.64951,0.54505 -1.15693,0.44102c-0.35303,-0.36776 -0.72832,-0.8205 -1.25332,-0.92599c-1.06143,-0.21245 -1.98149,0.3956 -2.13135,1.49448c0.53394,2.32524 5.61782,2.4322 5.34609,5.62482c-0.19189,2.25491 -2.13135,3.30105 -4.18081,3.14867c-1.74844,-0.44541 -2.14541,-0.93332 -2.82715,-2.52157l1.13291,-0.51428c0.30234,0.5597 0.73594,1.47837 1.35234,1.74356c2.08008,0.89376 4.00503,-1.32306 2.57036,-3.13548c-1.12119,-1.3172 -3.9063,-1.40071 -4.47407,-3.23072c-0.64014,-2.06151 0.36445,-3.1516 2.24238,-3.74939z" fill="#222020"/><path d="M195.98291,225.95694l0.15674,0.00586c3.27686,0.1348 2.66309,2.70032 2.66602,5.1252c0,0.64907 -0.0293,1.31573 -0.07471,1.96334c-0.59326,0.08791 -0.31494,0.12161 -0.86572,-0.08645c-1.229,-1.55602 1.62158,-6.59917 -2.93994,-5.84313c-2.31445,1.68935 -0.35449,4.83362 -1.31396,5.93837l-0.71484,0.01172c-0.46143,-0.34285 -0.45996,-6.13031 -0.00879,-6.82334c0.41162,-0.1011 0.41602,-0.12747 0.84521,-0.03077c0.05713,0.25641 0.09814,0.4879 0.14355,0.74578c1.0957,-0.6227 0.85547,-0.81024 2.10645,-1.00658z" fill="#222020"/><path d="M155.70264,226.22213c1.42969,-0.07179 1.59229,0.67252 1.31396,2.27982c-0.43506,2.50399 0.854,5.2219 3.47461,2.84245c0.40723,-0.37069 -0.13477,-4.47759 0.52148,-5.14131l0.71484,0.04689c0.27686,0.27692 0.18018,0.27545 0.19336,0.8161c0.01465,1.25712 0.01904,2.41754 -0.03809,3.70837c-0.13037,2.85124 -3.8833,3.27907 -5.47998,1.57214c-1.03418,-1.10474 -0.7207,-4.48345 -0.7002,-6.12445z" fill="#222020"/><path d="M99.15044,225.95694c3.05947,0.06593 2.93555,2.12451 2.87798,4.61092c-0.01436,0.61684 0.03135,2.02927 -0.13418,2.52011c-0.44941,0.05861 -0.42627,0.0674 -0.83013,-0.1304c-1.22637,-1.57507 1.54043,-6.4966 -2.92339,-5.85485c-2.68989,1.69814 0.03691,4.6915 -1.71724,6.14056l-0.32637,-0.06154c-0.39756,-0.72233 -0.47651,-6.21529 -0.05464,-6.94495c0.46245,-0.05861 0.42964,-0.12601 0.79468,0.03077l0.0895,0.67398c0.4251,-0.0337 1.09966,-0.79999 2.22378,-0.9846z" fill="#222020"/><path d="M81.37896,225.9628c1.04224,0.00586 2.1542,0.08352 2.62617,1.1487c-0.11733,0.54212 0.01582,0.3282 -0.39463,0.67691c-0.85093,-0.04249 -1.154,-0.80292 -1.44521,-0.84541c-1.63315,-0.23296 -2.45801,1.26884 -0.18647,2.02048c3.05918,1.01244 3.36328,3.56918 -0.05464,4.41312c-1.02729,-0.10989 -2.28252,-0.37216 -2.71963,-1.44027c0.10137,-0.28864 0.21709,-0.31355 0.48032,-0.48644c0.85195,-0.10696 2.82422,2.0366 3.46479,-0.14505c-0.56177,-1.62049 -4.43438,-1.39045 -3.71543,-3.91203c0.26177,-0.9172 1.09292,-1.22782 1.94473,-1.43001z" fill="#222020"/><path d="M39.2272,230.86968c0.43477,-0.9216 1.58833,-4.18455 2.17295,-4.58454c0.45425,-0.0293 0.65596,-0.12161 1.004,0.05128c-0.00117,0.526 -0.43257,1.22928 -0.6854,1.73624c-0.34351,0.9802 -2.00874,4.35305 -2.49697,5.32153c-0.93252,-1.71279 -2.57505,-5.34937 -3.33091,-7.17205c0.47666,-0.01758 0.61685,-0.04689 1.0689,0.07326c0.92358,0.86739 1.61001,3.2146 2.26743,4.57429z" fill="#222020"/><path d="M244.48682,230.91657c0.41602,-0.87178 1.67871,-4.31056 2.21924,-4.67246c0.38086,-0.0293 0.61084,-0.08938 0.95361,0.07472c0.0542,0.5597 -0.41455,1.29522 -0.69287,1.85931l-2.45508,5.30834l-3.37207,-7.26582c0.479,-0.02198 0.66797,-0.06593 1.11035,0.08791c0.87158,0.81024 1.71533,3.36259 2.23682,4.60799z" fill="#222020"/><path d="M149.18848,221.50572c0.55225,-0.02051 0.63428,-0.0337 1.16455,0.08645c0.07764,0.57288 0.06885,1.13551 0.06299,1.71426c-0.03662,3.26002 0.07031,6.55228 -0.03809,9.81084c-0.4292,-0.01319 -0.78223,0.03956 -1.11182,-0.20513c-0.15527,-0.89815 -0.09229,-2.98603 -0.09082,-3.97796z" fill="#222020"/><path d="M66.31597,223.47053l0.80288,-0.01026c1.04575,0.60805 -0.04438,1.24101 0.49482,2.73988c0.31362,0.09524 0.427,0.063 0.74854,0.03077l0.11338,-0.01319l0.22808,0.20073c0.08306,0.47179 0.16348,0.43662 -0.02578,0.74724c-0.42715,-0.00147 -0.79351,-0.06593 -1.12529,0.1685c-0.13022,1.4432 -0.04058,4.1992 -0.0356,5.73764l-0.73857,0.0044c-1.32422,-0.73992 0.02549,-4.08052 -0.42993,-5.57501c-0.46318,-0.44102 -0.41763,-0.20659 -1.23867,-0.36043c-0.15967,-0.35604 -0.09946,-0.47911 -0.02886,-0.86153c0.44839,-0.11868 0.6561,-0.09084 1.12588,-0.08645c0.20581,-0.28571 0.11323,-2.22854 0.10913,-2.7223z" fill="#222020"/><path d="M167.39648,223.46467c0.66357,-0.00293 0.62109,-0.10403 1.11182,0.18022c0.45117,0.83662 -0.38672,1.8095 0.28418,2.62707c0.35742,-0.05128 0.4585,-0.063 0.83496,-0.06154c0.31055,0.33406 0.21387,0.27252 0.29736,0.8205c-0.37646,0.38241 -0.71631,-0.03956 -1.25977,0.3326c-0.19336,0.99046 -0.08057,4.54059 -0.07178,5.7142c-0.35889,0 -0.84814,0.04689 -1.13232,-0.12308c-0.15674,-1.30108 -0.07178,-4.31642 -0.06738,-5.74936c-0.70166,-0.05275 -0.86426,0.20952 -1.41211,-0.3326l0.06445,-0.2652c0.41748,-0.31355 0.75732,-0.35018 1.26416,-0.47325c0.12158,-0.68863 0.08496,-1.92231 0.08643,-2.66956z" fill="#222020"/><path d="M60.8915,225.94668c0.3876,0.03077 0.56953,0.1011 0.93442,0.21099c0.23906,1.30108 -2.07817,0.3619 -2.67729,1.94576c-0.56338,1.48862 0.30029,3.4754 -0.3542,4.83362c-0.09229,0.19194 -0.56499,0.17289 -0.86646,0.20659c-0.35596,-0.48204 -0.14282,-5.70248 -0.16128,-6.57865c-0.00615,-0.28571 0.24609,-0.40146 0.46465,-0.56116l0.26997,0.07033c0.27231,0.31355 0.3312,0.78973 0.42891,1.21024l0.17358,-0.02637c0.40723,-0.91867 0.83599,-1.07691 1.7877,-1.31133z" fill="#222020"/><path d="M284.54443,225.94815c0.41016,0.01319 0.38525,0.01465 0.76611,0.17729c0.26514,0.4923 0.27539,0.33113 0.17432,0.75896l-0.35742,0.20659c-4.23193,-0.28278 -1.49121,4.62703 -2.63818,5.94423l-0.96973,0.04689c-0.02051,-0.90255 -0.07031,-6.26364 0.05859,-6.82041c0.36475,-0.14066 0.33838,-0.12894 0.72949,-0.08498c0.29443,0.3956 0.20215,0.48644 0.25342,1.07544c0.76904,-0.23736 0.38672,-0.88057 1.9834,-1.30401z" fill="#222020"/><path d="M225.40137,225.94522c0.27539,0.03956 0.59326,0.13333 0.86719,0.20366l0.05859,0.47032c-0.5874,0.4923 -1.64502,0.21685 -2.41113,1.06372c-1.26123,1.39778 0.14502,4.20799 -0.87744,5.36548l-0.83496,0.02198c-0.01025,-1.37287 -0.1377,-5.65266 0.07471,-6.71052c0.2959,-0.17582 0.52441,-0.11135 0.87598,-0.08205c0.00879,0.4249 -0.01611,0.74138 0.12305,1.14284c1.00488,-0.7868 0.3252,-1.07544 2.12402,-1.47544z" fill="#222020"/><path d="M73.12412,226.21481c0.49556,-0.01465 0.73521,-0.07472 1.15225,0.15091c0.17065,0.98167 0.07119,5.35523 0.0627,6.64019c-0.40415,0.09084 -0.85605,0.13773 -1.17202,-0.12747c-0.16904,-1.61902 -0.05405,-4.92154 -0.04292,-6.66363z" fill="#222020"/><path d="M252.20801,226.2192c0.53613,-0.01905 0.64746,-0.04835 1.14551,0.10842c0.17578,1.41536 0.05859,5.16329 0.04834,6.75008c-0.36328,0 -0.84229,0.05128 -1.13232,-0.12454c-0.17578,-1.52965 -0.06738,-5.05926 -0.06152,-6.73396z" fill="#222020"/><path d="M174.22266,226.22213c0.42773,-0.01172 0.86279,-0.05714 1.14697,0.18901c0.17578,1.62342 0.05127,4.87758 0.03369,6.62261c-0.50684,0.06007 -0.60205,0.10549 -1.06055,-0.0674c-0.27539,-0.55677 -0.13037,-5.75669 -0.12012,-6.74422z" fill="#222020"/><path d="M89.17866,226.21627c0.53101,-0.01905 0.63999,-0.05128 1.12617,0.12161c0.17563,1.40218 0.05874,5.16476 0.04937,6.73982c-0.36621,0.00147 -0.83188,0.05275 -1.125,-0.12308c-0.1708,-1.66737 -0.05962,-4.9523 -0.05054,-6.73836z" fill="#222020"/><path d="M73.33843,222.1885c0.28096,-0.14212 0.61758,-0.12014 0.87671,0.05861c0.25928,0.18022 0.39946,0.48644 0.36489,0.79999c-0.03442,0.31355 -0.23774,0.58314 -0.52969,0.70182c-0.42598,0.17289 -0.91245,-0.02051 -1.10332,-0.43955c-0.19087,-0.41758 -0.01831,-0.91281 0.39141,-1.12086z" fill="#222020"/><path d="M89.33247,222.1885c0.41294,-0.20659 0.91582,-0.04982 1.13701,0.35604c0.22119,0.40585 0.0813,0.91427 -0.31626,1.1487c-0.26982,0.1597 -0.60527,0.1597 -0.8748,-0.00147c-0.26953,-0.1597 -0.43008,-0.45421 -0.4188,-0.76775c0.01128,-0.31355 0.19248,-0.59486 0.47285,-0.73552z" fill="#222020"/><path d="M252.40283,222.18996c0.3999,-0.20659 0.89209,-0.0674 1.12646,0.31648c0.23291,0.38534 0.12891,0.88643 -0.23877,1.14577c-0.26221,0.18608 -0.60498,0.20952 -0.88916,0.06154c-0.28418,-0.14798 -0.46289,-0.44102 -0.46289,-0.76189c0,-0.32087 0.17871,-0.61391 0.46436,-0.76189z" fill="#222020"/><path d="M174.44385,222.19875c0.41309,-0.21392 0.92139,-0.05861 1.14258,0.35018c0.22119,0.40878 0.07324,0.92013 -0.33252,1.14723c-0.26807,0.15091 -0.59619,0.14652 -0.85986,-0.01319c-0.26221,-0.1597 -0.41895,-0.44981 -0.40869,-0.7575c0.01025,-0.30622 0.18604,-0.58461 0.4585,-0.72673z" fill="#222020"/><path d="M173.61182,0h1.80029c0.64893,0.15672 1.43115,0.219 2.10352,0.35542c4.18359,0.84931 7.96729,3.97483 9.12158,8.15728c0.7251,2.66768 0.35156,5.51482 -1.03711,7.90492c-3.82031,6.64678 -12.26367,7.61365 -18.54053,3.89415c-1.88965,1.86503 -6.95947,5.91976 -9.19775,7.76222c-3.55811,2.92919 -8.13574,7.0837 -11.72212,9.74652c0.74019,1.04218 1.19575,2.25916 1.32319,3.53123c0.22266,2.2552 -0.56104,3.98997 -1.9708,5.67771c6.94687,6.76004 13.99131,13.87949 20.8292,20.767c16.27295,-3.6584 20.02148,18.28104 3.49072,19.2315c-3.13916,0.18051 -6.19336,-1.10709 -8.40967,-3.29973c-4.43262,2.79644 -10.12646,5.89324 -14.73926,8.54976c0.06738,0.25787 0.12891,0.51735 0.18457,0.77816c0.42773,2.03997 0.16406,3.9321 -0.99639,5.69281c-1.27559,1.89667 -3.26089,3.1998 -5.50811,3.61548c-2.7687,0.5323 -5.12534,-0.06901 -7.4228,-1.61477c-2.84795,2.17491 -6.28872,4.52213 -9.26191,6.5725c0.08496,0.28 0.17622,0.59662 0.22441,0.88629c0.28696,1.81111 -0.16216,3.66192 -1.24731,5.13985c-2.70425,3.6543 -8.41685,4.13034 -11.92793,1.40071c-1.49399,-1.13991 -2.45054,-2.84655 -2.64346,-4.71597c-0.21562,-1.8136 0.32183,-3.63628 1.48711,-5.04227c2.79595,-3.41255 8.38184,-3.84522 11.74526,-1.0539c1.7855,-1.39119 7.18916,-4.76022 9.23291,-5.98071c-0.34175,-0.84892 -0.55811,-1.50489 -0.65449,-2.4278c-0.21606,-1.89946 0.34849,-3.80536 1.56431,-5.28065c3.26953,-3.9951 9.23291,-4.09517 13.08853,-0.84131c4.90239,-2.98384 9.83745,-5.91229 14.8062,-8.78463c-1.29639,-4.46586 -0.45703,-8.15079 3.32813,-11.06869l-21.11895,-20.05273c-3.94731,0.63091 -7.93564,-0.04029 -10.14155,-3.75291c-1.00693,-1.67441 -1.29434,-3.68478 -0.79702,-5.57427c1.16953,-4.41634 5.90317,-6.53103 10.15986,-5.67654c0.57231,0.11502 1.18257,0.29509 1.74463,0.45259c2.40894,-2.21638 7.46895,-6.01544 10.15547,-8.10229c3.5332,-2.74325 8.11377,-6.6229 11.64111,-9.05905c-1.06055,-1.44393 -1.79736,-2.96318 -2.11084,-4.73987c-0.47754,-2.73991 0.16113,-5.55697 1.77246,-7.82281c2.5415,-3.63482 5.6001,-4.52086 9.64453,-5.22518z" fill="#29abe2"/><path d="M0,211.52346l300,0.00293v4.29004l-300,-0.00147z" fill="#222020"/><path d="M112.48623,231.99054l-0.14707,0.14212c-1.40435,1.35089 -3.704,1.52525 -4.74521,-0.01319c-2.32471,-3.43584 0.62124,-8.5376 4.83633,-4.95377c0.07207,-0.38681 0.08232,-0.52453 0.10283,-0.92013c0.48545,-0.02051 0.53555,-0.02198 1.0125,0.05421c0.2395,0.58314 0.2874,7.5823 -0.19629,8.52588c-0.38101,0.74431 -1.01104,1.10181 -1.8022,1.35822c-0.1875,0.06007 -0.37793,0.10989 -0.5707,0.14945h-1.48037c-1.24995,-0.37069 -2.59556,-0.87471 -2.41567,-2.45564c0.28887,-0.47032 0.09185,-0.32967 0.57495,-0.48204c0.66841,0.28278 0.51211,0.17143 0.79673,0.85859c0.71338,1.72305 3.19819,1.53551 3.83936,-0.24029c0.30161,-0.83662 0.21504,-1.27178 0.19482,-2.02341zM110.87886,232.10043c2.66294,-1.3128 2.1479,-5.05194 -1.20059,-4.96842c-0.77593,0.32967 -1.15928,0.56556 -1.48887,1.39192c-0.28813,0.71208 -0.27217,1.51206 0.04424,2.21242c0.57114,1.24247 1.4231,1.41683 2.64521,1.36408z" fill="#222020"/></g></svg></svg>